<svg width="169" height="200" viewBox="0 0 169 200" fill="none" xmlns="http://www.w3.org/2000/svg">
<g filter="url(#filter0_d_9_86)">
<path fill-rule="evenodd" clip-rule="evenodd" d="M102.57 10.1371C102.672 9.99174 102.872 9.9564 103.017 10.0582L112.958 17.0187C113.103 17.1205 113.139 17.3209 113.037 17.4663L99.2013 37.2255C105.928 39.3744 110.51 41.6923 110.51 41.6923C110.51 41.6923 99.309 60.9592 80.3109 60.9592C61.3127 60.9592 47.8128 43.0021 47.8128 43.0021C47.8128 43.0021 52.5996 39.9472 59.6953 37.3272L44.5195 19.2416C44.4055 19.1056 44.4233 18.9029 44.5592 18.7888L53.8552 10.9884C53.9914 10.8744 54.194 10.8921 54.308 11.0281L73.523 33.9276C75.1683 33.7415 76.8445 33.6375 78.536 33.6375C80.9671 33.6375 83.3952 33.8223 85.7657 34.1359L102.57 10.1371ZM106.328 61.8717C111.398 58.2508 119.07 48.8003 119.07 48.8003C119.07 48.8003 138.665 64.3288 138.665 97.2551C138.665 130.181 104.788 149.998 104.788 149.998C104.788 149.998 88.6015 133.652 84.6279 112.93C80.6546 92.2088 90.5057 69.2001 90.5057 69.2001C90.5057 69.2001 101.258 65.4926 106.328 61.8717ZM51.7276 61.8717C46.6578 58.2508 38.9862 48.8003 38.9862 48.8003C38.9862 48.8003 19.3906 64.3288 19.3906 97.2551C19.3906 130.181 53.2684 149.998 53.2684 149.998C53.2684 149.998 69.4546 133.652 73.4282 112.93C77.4015 92.2088 67.5504 69.2001 67.5504 69.2001C67.5504 69.2001 56.7977 65.4926 51.7276 61.8717Z" fill="#C6D16E"/>
</g>
<defs>
<filter id="filter0_d_9_86" x="-21" y="6.10352e-05" width="200" height="200" filterUnits="userSpaceOnUse" color-interpolation-filters="sRGB">
<feFlood flood-opacity="0" result="BackgroundImageFix"/>
<feColorMatrix in="SourceAlpha" type="matrix" values="0 0 0 0 0 0 0 0 0 0 0 0 0 0 0 0 0 0 127 0" result="hardAlpha"/>
<feOffset dy="20"/>
<feGaussianBlur stdDeviation="15"/>
<feComposite in2="hardAlpha" operator="out"/>
<feColorMatrix type="matrix" values="0 0 0 0 0 0 0 0 0 0 0 0 0 0 0 0 0 0 0.25 0"/>
<feBlend mode="normal" in2="BackgroundImageFix" result="effect1_dropShadow_9_86"/>
<feBlend mode="normal" in="SourceGraphic" in2="effect1_dropShadow_9_86" result="shape"/>
</filter>
</defs>
</svg>
