<svg width="183" height="200" viewBox="0 0 183 200" fill="none" xmlns="http://www.w3.org/2000/svg">
<g filter="url(#filter0_d_9_90)">
<path fill-rule="evenodd" clip-rule="evenodd" d="M98.2062 79.694C99.1483 79.1154 99.9475 77.903 100.592 76.5555C109.075 80.0473 115.036 88.2985 115.036 97.9211C115.036 110.704 104.516 121.067 91.5386 121.067C86.2115 121.067 81.2984 119.321 77.3573 116.378C76.0645 115.761 75.0008 115.169 74.1304 114.684C72.7803 113.932 71.895 113.439 71.3407 113.517C69.7202 113.742 70.1907 115.243 70.6182 116.608C70.9085 117.534 71.1791 118.397 70.7602 118.753C70.3221 119.126 68.9027 117.763 67.2442 116.171C64.9866 114.003 62.2858 111.409 61.0123 112.188C60.0054 112.804 60.983 114.475 62.1797 116.521L62.2685 116.672C62.774 117.537 63.3598 118.417 63.8944 119.221C64.9811 120.853 65.8564 122.169 65.4185 122.392C64.8891 122.661 61.2007 120.153 58.0925 116.672C56.8928 115.329 55.7308 113.873 54.6509 112.519V112.519C52.2871 109.557 50.3177 107.089 49.2122 107.381C47.8824 107.733 48.8884 110.496 50.3666 113.154C51.0578 114.398 51.8709 115.664 52.5748 116.76V116.76C53.6697 118.465 54.5008 119.758 54.1994 119.917C53.7927 120.132 50.2143 116.617 47.7838 112.188C46.3402 109.557 45.128 106.65 44.1466 104.297C43.0824 101.744 42.2896 99.8431 41.7676 99.6516C39.9539 98.9869 39.9539 102.711 40.6814 108.087C40.7762 108.788 40.9175 109.524 41.0915 110.273C48.1458 133.261 69.816 150 95.4547 150C126.816 150 152.239 124.956 152.239 94.0634C152.239 64.6601 129.209 40.5558 99.9486 38.2991C99.9855 36.914 100.703 34.1672 100.703 34.1672C100.703 34.1672 105.869 21.5793 106.142 18.8894C106.16 18.7109 106.181 18.5169 106.204 18.3103C106.526 15.4039 107.125 9.99997 102.509 9.99997C100.044 9.99997 98.8977 11.8469 97.5867 13.9593C97.0834 14.7703 96.5556 15.6203 95.9198 16.42C91.3404 22.1799 83.64 29.3727 79.2737 33.2047C70.0449 41.3042 60.9903 47.9608 55.7094 51.843L55.7091 51.8433C53.3073 53.6089 51.6863 54.8008 51.1846 55.2933C47.4039 59.0054 33.8481 83.6329 33.8481 83.6329C33.8481 83.6329 29.4643 91.5341 31.0225 93.1367C32.5806 94.7391 36.3382 94.3718 36.3382 94.3718C36.3382 94.3718 86.8183 82.7078 91.3377 81.788C92.5544 81.5402 93.4134 81.3972 94.0729 81.2876C95.8633 80.9898 96.1847 80.9362 98.2062 79.694ZM62.515 64.705C59.8053 67.2991 55.3114 73.4911 55.3114 73.4911C55.3114 73.4911 63.6634 74.0092 68.2631 69.6055C72.8631 65.2015 71.8092 57.6965 71.8092 57.6965C71.8092 57.6965 65.2244 62.1109 62.515 64.705Z" fill="#A27DFA"/>
</g>
<defs>
<filter id="filter0_d_9_90" x="-8" y="-3.05176e-05" width="199" height="200" filterUnits="userSpaceOnUse" color-interpolation-filters="sRGB">
<feFlood flood-opacity="0" result="BackgroundImageFix"/>
<feColorMatrix in="SourceAlpha" type="matrix" values="0 0 0 0 0 0 0 0 0 0 0 0 0 0 0 0 0 0 127 0" result="hardAlpha"/>
<feOffset dy="20"/>
<feGaussianBlur stdDeviation="15"/>
<feComposite in2="hardAlpha" operator="out"/>
<feColorMatrix type="matrix" values="0 0 0 0 0 0 0 0 0 0 0 0 0 0 0 0 0 0 0.25 0"/>
<feBlend mode="normal" in2="BackgroundImageFix" result="effect1_dropShadow_9_90"/>
<feBlend mode="normal" in="SourceGraphic" in2="effect1_dropShadow_9_90" result="shape"/>
</filter>
</defs>
</svg>
