<svg width="163" height="200" viewBox="0 0 163 200" fill="none" xmlns="http://www.w3.org/2000/svg">
<g filter="url(#filter0_d_9_98)">
<path fill-rule="evenodd" clip-rule="evenodd" d="M106.321 118.116C108.05 111.791 104.693 98.788 104.693 98.788C104.693 98.788 102.258 109.381 98.4524 113.296C95.2062 116.635 91.229 118.952 85.5251 119.56C90.1886 117.295 93.3957 112.572 93.3957 107.113C93.3957 99.4494 87.0761 93.2369 79.2803 93.2369C71.4846 93.2369 65.1647 99.4494 65.1647 107.113C65.1647 109.206 65.6364 111.191 66.4805 112.97C61.6045 109.086 60.8378 102.858 60.8378 102.858C60.8378 102.858 55.3931 125.463 70.3955 136.096C85.3977 146.73 114.786 137.59 114.786 137.59C114.786 137.59 72.7293 167.182 41.5646 134.975C14.7187 107.23 34.5578 70.704 34.5578 70.704C34.5578 70.704 33.701 74.0925 33.701 78.0259C33.701 81.9593 35.8336 84.952 35.8336 84.952C35.8336 84.952 42.1951 71.5429 47.146 66.0898C51.8316 60.9289 57.7053 56.7431 62.7787 53.1277C66.6839 50.3447 70.115 47.8996 72.1641 45.6079C83.4508 32.9876 76.5304 10.0001 76.5304 10.0001C76.5304 10.0001 89.2534 21.2165 92.8054 35.7026C94.1594 41.2245 93.2883 47.5072 92.5095 53.1256C91.2452 62.2463 90.2233 69.6163 99.3575 69.1381C114.118 68.3651 101.292 45.6079 101.292 45.6079C101.292 45.6079 134.774 63.2064 132.273 93.985C129.771 124.764 95.6746 131.761 95.6746 131.761C95.6746 131.761 104.591 124.441 106.321 118.116Z" fill="#F5AC78"/>
</g>
<defs>
<filter id="filter0_d_9_98" x="-20" y="9.15527e-05" width="200" height="200" filterUnits="userSpaceOnUse" color-interpolation-filters="sRGB">
<feFlood flood-opacity="0" result="BackgroundImageFix"/>
<feColorMatrix in="SourceAlpha" type="matrix" values="0 0 0 0 0 0 0 0 0 0 0 0 0 0 0 0 0 0 127 0" result="hardAlpha"/>
<feOffset dy="20"/>
<feGaussianBlur stdDeviation="15"/>
<feComposite in2="hardAlpha" operator="out"/>
<feColorMatrix type="matrix" values="0 0 0 0 0 0 0 0 0 0 0 0 0 0 0 0 0 0 0.25 0"/>
<feBlend mode="normal" in2="BackgroundImageFix" result="effect1_dropShadow_9_98"/>
<feBlend mode="normal" in="SourceGraphic" in2="effect1_dropShadow_9_98" result="shape"/>
</filter>
</defs>
</svg>
