<svg width="199" height="182" viewBox="0 0 199 182" fill="none" xmlns="http://www.w3.org/2000/svg">
<g filter="url(#filter0_d_9_100)">
<path fill-rule="evenodd" clip-rule="evenodd" d="M78.5175 131.63C98.8797 131.63 116.312 120.232 123.509 104.074C123.597 103.877 94.6152 111.66 95.5393 108.909C95.952 107.68 113.718 101.143 126.661 93.5187C134.101 89.1363 137.527 79.8594 137.527 79.8594C137.527 79.8594 124.993 85.9885 118.657 87.5433C105.889 90.6769 94.6488 90.3395 94.6488 90.013C94.6488 89.307 113.312 85.7353 139.252 69.8144C151.453 62.3258 154.767 49.4267 154.767 49.4267C154.767 49.4267 141.353 57.4745 133.244 60.1315C114.013 66.4323 96.4634 68.331 96.4634 67.4785C96.4634 65.653 111.907 61.3756 128.282 53.3844C136.795 49.2295 144.169 43.8012 152.713 37.7645C166.694 27.8877 169 10.2969 169 10.2969C169 10.2969 155.21 19.2548 148.481 22.2296C120.714 34.5046 96.1958 40.9435 78.5175 42.3375C51.8317 44.4419 30 63.1951 30 87.5433C30 111.892 51.722 131.63 78.5175 131.63Z" fill="#A890F0"/>
</g>
<defs>
<filter id="filter0_d_9_100" x="0" y="-8.99995" width="199" height="200" filterUnits="userSpaceOnUse" color-interpolation-filters="sRGB">
<feFlood flood-opacity="0" result="BackgroundImageFix"/>
<feColorMatrix in="SourceAlpha" type="matrix" values="0 0 0 0 0 0 0 0 0 0 0 0 0 0 0 0 0 0 127 0" result="hardAlpha"/>
<feOffset dy="20"/>
<feGaussianBlur stdDeviation="15"/>
<feComposite in2="hardAlpha" operator="out"/>
<feColorMatrix type="matrix" values="0 0 0 0 0 0 0 0 0 0 0 0 0 0 0 0 0 0 0.25 0"/>
<feBlend mode="normal" in2="BackgroundImageFix" result="effect1_dropShadow_9_100"/>
<feBlend mode="normal" in="SourceGraphic" in2="effect1_dropShadow_9_100" result="shape"/>
</filter>
</defs>
</svg>
