<svg width="186" height="196" viewBox="0 0 186 196" fill="none" xmlns="http://www.w3.org/2000/svg">
<g filter="url(#filter0_d_9_104)">
<path fill-rule="evenodd" clip-rule="evenodd" d="M50.6362 128.49C50.1556 128.038 49.6804 127.577 49.2107 127.108C24.4141 102.311 24.4141 62.1079 49.2107 37.3115C74.0071 12.5149 153.019 10.856 153.019 10.856C153.019 10.856 163.803 102.311 139.007 127.108C116.984 149.13 82.8096 151.594 58.0682 134.499L78.004 110.034L109.873 103.154L83.8585 100.553L100.391 83.7196L119.21 79.597L104.329 75.19L119.21 48.345L98.0434 72.087L89.8695 60.5526L92.7469 79.597L78.004 96.2171L71.1699 75.1897V103.154L50.6362 128.49Z" fill="#A7DB8D"/>
</g>
<defs>
<filter id="filter0_d_9_104" x="-6" y="-1.9999" width="200" height="200" filterUnits="userSpaceOnUse" color-interpolation-filters="sRGB">
<feFlood flood-opacity="0" result="BackgroundImageFix"/>
<feColorMatrix in="SourceAlpha" type="matrix" values="0 0 0 0 0 0 0 0 0 0 0 0 0 0 0 0 0 0 127 0" result="hardAlpha"/>
<feOffset dy="20"/>
<feGaussianBlur stdDeviation="15"/>
<feComposite in2="hardAlpha" operator="out"/>
<feColorMatrix type="matrix" values="0 0 0 0 0 0 0 0 0 0 0 0 0 0 0 0 0 0 0.25 0"/>
<feBlend mode="normal" in2="BackgroundImageFix" result="effect1_dropShadow_9_104"/>
<feBlend mode="normal" in="SourceGraphic" in2="effect1_dropShadow_9_104" result="shape"/>
</filter>
</defs>
</svg>
