<svg width="200" height="170" viewBox="0 0 200 170" fill="none" xmlns="http://www.w3.org/2000/svg">
<g filter="url(#filter0_d_9_106)">
<path fill-rule="evenodd" clip-rule="evenodd" d="M60.8339 119.386C60.7959 119.386 60.7694 119.349 60.782 119.314L96.5243 19.0404C96.5323 19.0186 96.553 19.004 96.5763 19.004H134.732C134.756 19.004 134.777 19.0187 134.784 19.0406L169.996 119.314C170.009 119.35 169.982 119.386 169.944 119.386H61.908H60.8339ZM30.055 119.779C30.0167 119.779 29.9901 119.741 30.0035 119.705L56.6199 49.154C56.6279 49.1325 56.6484 49.1184 56.6714 49.1184H79.7979C79.8362 49.1184 79.8627 49.1561 79.8496 49.1917L54.1123 119.743C54.1045 119.764 54.0838 119.779 54.0606 119.779H30.055Z" fill="#EBD69D"/>
</g>
<defs>
<filter id="filter0_d_9_106" x="0" y="-9.99992" width="200" height="199" filterUnits="userSpaceOnUse" color-interpolation-filters="sRGB">
<feFlood flood-opacity="0" result="BackgroundImageFix"/>
<feColorMatrix in="SourceAlpha" type="matrix" values="0 0 0 0 0 0 0 0 0 0 0 0 0 0 0 0 0 0 127 0" result="hardAlpha"/>
<feOffset dy="20"/>
<feGaussianBlur stdDeviation="15"/>
<feComposite in2="hardAlpha" operator="out"/>
<feColorMatrix type="matrix" values="0 0 0 0 0 0 0 0 0 0 0 0 0 0 0 0 0 0 0.25 0"/>
<feBlend mode="normal" in2="BackgroundImageFix" result="effect1_dropShadow_9_106"/>
<feBlend mode="normal" in="SourceGraphic" in2="effect1_dropShadow_9_106" result="shape"/>
</filter>
</defs>
</svg>
