<svg width="179" height="179" viewBox="0 0 179 179" fill="none" xmlns="http://www.w3.org/2000/svg">
<g filter="url(#filter0_d_9_108)">
<path fill-rule="evenodd" clip-rule="evenodd" d="M134.083 10.5993L134.514 48.1592L101.518 63.8855L101.111 28.4218L134.083 10.5993Z" fill="#BCE6E6"/>
<path fill-rule="evenodd" clip-rule="evenodd" d="M167.16 69.7843L134.496 88.334L101.813 69.755L134.479 52.7188L167.16 69.7843Z" fill="#BCE6E6"/>
<path fill-rule="evenodd" clip-rule="evenodd" d="M96.0032 69.7843L63.3397 88.334L30.6567 69.755L63.3228 52.7188L96.0032 69.7843Z" fill="#BCE6E6"/>
<path fill-rule="evenodd" clip-rule="evenodd" d="M62.9727 10.4455L96.8751 27.1162L96.0083 63.4452L63.998 47.705L62.9727 10.4455Z" fill="#BCE6E6"/>
<path fill-rule="evenodd" clip-rule="evenodd" d="M135.006 128.555L101.103 111.884L101.97 75.5547L133.98 91.2951L135.006 128.555Z" fill="#BCE6E6"/>
<path fill-rule="evenodd" clip-rule="evenodd" d="M64.1436 128.893L63.7126 91.3329L96.7086 75.6066L97.1155 111.07L64.1436 128.893Z" fill="#BCE6E6"/>
</g>
<defs>
<filter id="filter0_d_9_108" x="-1" y="-9.99992" width="200" height="199" filterUnits="userSpaceOnUse" color-interpolation-filters="sRGB">
<feFlood flood-opacity="0" result="BackgroundImageFix"/>
<feColorMatrix in="SourceAlpha" type="matrix" values="0 0 0 0 0 0 0 0 0 0 0 0 0 0 0 0 0 0 127 0" result="hardAlpha"/>
<feOffset dy="20"/>
<feGaussianBlur stdDeviation="15"/>
<feComposite in2="hardAlpha" operator="out"/>
<feColorMatrix type="matrix" values="0 0 0 0 0 0 0 0 0 0 0 0 0 0 0 0 0 0 0.25 0"/>
<feBlend mode="normal" in2="BackgroundImageFix" result="effect1_dropShadow_9_108"/>
<feBlend mode="normal" in="SourceGraphic" in2="effect1_dropShadow_9_108" result="shape"/>
</filter>
</defs>
</svg>
