<svg width="200" height="200" viewBox="0 0 200 200" fill="none" xmlns="http://www.w3.org/2000/svg">
<path d="M62.0485 10.1658L62.0489 10.1656C74.0674 5.08127 86.8336 2.50159 99.9998 2.50159C113.169 2.50159 125.936 5.08166 137.953 10.1656C149.558 15.0748 159.987 22.1039 168.947 31.0571C177.9 40.0129 184.926 50.44 189.835 62.0501C194.917 74.0693 197.5 86.8362 197.5 100.002C197.5 113.17 194.917 125.937 189.836 137.955C184.926 149.56 177.9 159.99 168.947 168.943C159.988 177.901 149.559 184.927 137.954 189.837C125.936 194.919 113.169 197.501 100 197.501C86.8344 197.501 74.0681 194.919 62.0489 189.837C50.4385 184.928 40.0116 177.902 31.0561 168.943L31.0558 168.943C22.103 159.99 15.0734 149.56 10.164 137.955C5.07969 125.937 2.5 113.17 2.5 100.002C2.5 86.8358 5.08005 74.0691 10.1637 62.0504L10.1637 62.0503C15.0733 50.4408 22.1022 40.0137 31.055 31.0577C31.0551 31.0576 31.0552 31.0575 31.0553 31.0574C31.0554 31.0573 31.0555 31.0572 31.0556 31.0571C40.0121 22.1042 50.4391 15.0749 62.0485 10.1658Z" fill="#ED5564" stroke="black" stroke-width="5"/>
<path d="M10.1639 137.955L10.1638 137.955C5.76355 127.557 3.2429 116.599 2.64222 105.309H197.361C196.76 116.599 194.239 127.557 189.836 137.955L189.836 137.955C184.926 149.56 177.9 159.99 168.947 168.943C159.988 177.901 149.559 184.927 137.954 189.837C125.936 194.919 113.169 197.501 100 197.501C86.8344 197.501 74.068 194.919 62.0488 189.837C50.4384 184.928 40.0116 177.902 31.056 168.943L31.0557 168.943C22.1029 159.99 15.0733 149.56 10.1639 137.955Z" fill="#E6E9ED" stroke="black" stroke-width="5"/>
<path d="M21.4206 94.1913C38.5559 96.0822 66.0811 98.3354 99.9998 98.3354C133.921 98.3354 161.443 96.0822 178.582 94.1913C186.138 93.358 192.393 92.5196 197.164 91.8163C197.387 94.5248 197.5 97.2544 197.5 100.002C197.5 102.573 197.401 105.129 197.205 107.669C180.267 110.136 145.586 114.164 99.9998 114.164C54.4137 114.164 19.7319 110.136 2.79473 107.669C2.59822 105.129 2.5 102.573 2.5 100.002C2.5 97.2542 2.61287 94.5243 2.83702 91.8161C7.60742 92.5194 13.8611 93.3576 21.4206 94.1913ZM21.4206 94.1913L21.6948 91.7064M21.4206 94.1913L21.6948 91.7064M21.6948 91.7064C14.1003 90.8688 7.83299 90.0271 3.07529 89.3242L196.927 89.3242C192.169 90.0271 185.9 90.8691 178.308 91.7064C161.242 93.5892 133.813 95.8354 99.9998 95.8354C66.1894 95.8354 38.7574 93.5892 21.6948 91.7064Z" fill="#434A54" stroke="black" stroke-width="5"/>
<path d="M99.9997 122.501C110.124 122.501 118.337 114.293 118.337 104.167C118.337 94.0437 110.125 85.8358 99.9997 85.8354V122.501ZM99.9997 122.501C89.8752 122.501 81.6655 114.294 81.6655 104.167M99.9997 122.501L81.6655 104.167M81.6655 104.167C81.6655 94.0427 89.8749 85.8355 99.9996 85.8354L81.6655 104.167Z" fill="#E6E9ED" stroke="black" stroke-width="5"/>
<path d="M64.9999 104.167C64.9999 84.8723 80.7019 69.1674 99.9998 69.1674C119.298 69.1674 134.999 84.8723 134.999 104.167C134.999 123.462 119.298 139.164 99.9998 139.164C80.702 139.164 64.9999 123.462 64.9999 104.167ZM80.8341 104.167C80.8341 114.735 89.4294 123.339 99.9998 123.339C110.575 123.339 119.162 114.734 119.162 104.167C119.162 93.5987 110.574 85.0016 99.9998 85.0016C89.4302 85.0016 80.8341 93.5977 80.8341 104.167Z" fill="#434A54" stroke="black" stroke-width="5"/>
<path opacity="0.2" d="M155.765 180.001C160.448 176.731 164.851 173.039 168.947 168.943C177.9 159.99 184.926 149.56 189.836 137.956C194.917 125.937 197.5 113.17 197.5 100.002C197.5 86.8361 194.917 74.0693 189.835 62.0501C184.926 50.4404 177.9 40.0136 168.948 31.058C164.851 26.9645 160.448 23.2732 155.765 20.0028C158.679 22.3436 161.475 24.8517 164.145 27.5219L164.145 27.5221C173.551 36.9309 180.948 47.8962 186.108 60.1021C191.459 72.7434 194.161 86.1732 194.161 100.002C194.161 113.833 191.459 127.263 186.109 139.904C180.948 152.104 173.552 163.072 164.145 172.478L155.765 180.001ZM155.765 180.001C158.679 177.66 161.475 175.151 164.145 172.479L155.765 180.001Z" fill="white" stroke="black" stroke-width="5"/>
<path opacity="0.1" d="M31.0558 168.943L31.0561 168.943C35.157 173.046 39.5665 176.743 44.2568 180.017C41.3353 177.671 38.5323 175.157 35.8551 172.478M31.0558 168.943L69.4059 7.86277C57.4982 12.8981 46.8049 20.1096 37.6222 29.2923C28.4395 38.4715 21.2311 49.1684 16.1927 61.0761C10.9773 73.4054 8.33462 86.5035 8.33462 100.002C8.33462 113.502 10.9773 126.601 16.1931 138.929C21.2315 150.831 28.4399 161.53 37.6226 170.71L35.8545 172.478M31.0558 168.943C22.103 159.99 15.0734 149.56 10.164 137.955C5.08007 125.938 2.5 113.17 2.5 100.002C2.5 86.8358 5.08005 74.0691 10.1637 62.0504L10.1637 62.0503C15.0734 50.4405 22.1025 40.0134 31.0553 31.0605L31.0558 168.943ZM35.8551 172.478C35.8549 172.478 35.8547 172.478 35.8545 172.478M35.8551 172.478C35.8549 172.478 35.8547 172.478 35.8545 172.478M35.8551 172.478L35.8548 27.5242C26.4448 36.9306 19.0545 47.8968 13.8903 60.102L13.8902 60.1022C8.54322 72.7425 5.83462 86.1721 5.83462 100.002C5.83462 113.834 8.5432 127.264 13.8906 139.903L13.8908 139.904C19.0549 152.103 26.4448 163.071 35.8545 172.478" fill="black" stroke="black" stroke-width="5"/>
</svg>
