<svg width="191" height="199" viewBox="0 0 191 199" fill="none" xmlns="http://www.w3.org/2000/svg">
<g filter="url(#filter0_d_9_119)">
<path fill-rule="evenodd" clip-rule="evenodd" d="M150.667 125.431C150.667 125.431 133.014 139.489 97.8848 133.671C71.2328 129.258 57.0179 100.088 57.0179 84.4087C57.0179 47.2343 84.7297 38.7746 103.465 38.7746C122.2 38.7746 134.422 56.9098 134.422 70.9509C134.422 84.9921 124.419 97.2735 108.853 97.2735C93.2875 97.2735 88.6773 86.4236 88.6773 76.4485C88.6773 66.4736 96.8058 62.9593 104.219 62.9593C111.632 62.9593 114.17 69.243 114.17 74.6437C114.17 80.0446 109.95 81.9786 106.43 81.9786C102.909 81.9786 102.561 80.2153 101.214 78.3622C99.8667 76.5093 102.932 69.4952 97.8848 69.4952C92.8371 69.4952 91.8962 77.5586 91.8962 77.5586C91.8962 77.5586 93.7365 93.1236 108.853 92.8551C123.97 92.5863 131.142 80.9831 129.057 69.4952C126.973 58.0071 115.744 45.7998 96.0364 48.2665C76.3286 50.7332 68.2822 70.5038 71.8289 91.6318C75.3757 112.76 100.869 125.002 120.913 120.598C140.958 116.193 160.922 101.786 160.922 65.2566C160.922 28.7272 129.057 6.7698 91.062 10.3885C53.0665 14.0072 29.4806 46.9881 30.9903 86.6153C32.5 126.243 70.3721 147.825 102.397 148.937C134.422 150.05 154.054 131.644 154.054 131.644C154.054 131.644 158.469 127.735 156.738 124.682C155.007 121.629 150.667 125.431 150.667 125.431Z" fill="#FA92B2"/>
</g>
<defs>
<filter id="filter0_d_9_119" x="-4" y="0.000518799" width="200" height="199" filterUnits="userSpaceOnUse" color-interpolation-filters="sRGB">
<feFlood flood-opacity="0" result="BackgroundImageFix"/>
<feColorMatrix in="SourceAlpha" type="matrix" values="0 0 0 0 0 0 0 0 0 0 0 0 0 0 0 0 0 0 127 0" result="hardAlpha"/>
<feOffset dy="20"/>
<feGaussianBlur stdDeviation="15"/>
<feComposite in2="hardAlpha" operator="out"/>
<feColorMatrix type="matrix" values="0 0 0 0 0 0 0 0 0 0 0 0 0 0 0 0 0 0 0.25 0"/>
<feBlend mode="normal" in2="BackgroundImageFix" result="effect1_dropShadow_9_119"/>
<feBlend mode="normal" in="SourceGraphic" in2="effect1_dropShadow_9_119" result="shape"/>
</filter>
</defs>
</svg>
