<svg width="200" height="181" viewBox="0 0 200 181" fill="none" xmlns="http://www.w3.org/2000/svg">
<g filter="url(#filter0_d_9_123)">
<path fill-rule="evenodd" clip-rule="evenodd" d="M30.014 70.5973C29.9954 70.5656 29.9953 70.5263 30.014 70.4943L65.2174 10.3474C65.2357 10.3162 65.2693 10.297 65.3054 10.297H135.08C135.117 10.297 135.15 10.3164 135.169 10.3478L169.986 70.4948C170.004 70.5263 170.004 70.5654 169.986 70.5968L135.169 130.676C135.15 130.708 135.117 130.727 135.08 130.727H65.3054C65.2693 130.727 65.2357 130.708 65.2174 130.677L30.014 70.5973ZM132.434 70.512C132.434 88.4189 117.918 102.935 100.011 102.935C82.1041 102.935 67.5875 88.4189 67.5875 70.512C67.5875 52.6049 82.1041 38.0886 100.011 38.0886C117.918 38.0886 132.434 52.6049 132.434 70.512Z" fill="#D1D1E0"/>
</g>
<defs>
<filter id="filter0_d_9_123" x="0" y="-8.99987" width="200" height="200" filterUnits="userSpaceOnUse" color-interpolation-filters="sRGB">
<feFlood flood-opacity="0" result="BackgroundImageFix"/>
<feColorMatrix in="SourceAlpha" type="matrix" values="0 0 0 0 0 0 0 0 0 0 0 0 0 0 0 0 0 0 127 0" result="hardAlpha"/>
<feOffset dy="20"/>
<feGaussianBlur stdDeviation="15"/>
<feComposite in2="hardAlpha" operator="out"/>
<feColorMatrix type="matrix" values="0 0 0 0 0 0 0 0 0 0 0 0 0 0 0 0 0 0 0.25 0"/>
<feBlend mode="normal" in2="BackgroundImageFix" result="effect1_dropShadow_9_123"/>
<feBlend mode="normal" in="SourceGraphic" in2="effect1_dropShadow_9_123" result="shape"/>
</filter>
</defs>
</svg>
