<svg width="88" height="140" viewBox="0 0 88 140" fill="none" xmlns="http://www.w3.org/2000/svg">
<path fill-rule="evenodd" clip-rule="evenodd" d="M15.7156 0.159564C15.6885 0.0814429 15.7467 -3.05176e-05 15.8293 -3.05176e-05H65.0013C65.0541 -3.05176e-05 65.1008 0.0343097 65.1164 0.0846755L87.7018 73.0545C87.7256 73.1319 87.6679 73.2104 87.5867 73.2104H54.851C54.8111 73.2104 54.7824 73.2484 54.7933 73.287L73.5681 139.378C73.6047 139.506 73.4366 139.59 73.3565 139.483L0.394724 42.4558C0.335114 42.3765 0.391687 42.2633 0.490835 42.2633H30.2012C30.2425 42.2633 30.2715 42.2225 30.2578 42.1834L15.7156 0.159564Z" fill="#FAE078"/>
</svg>
