<svg width="151" height="200" viewBox="0 0 151 200" fill="none" xmlns="http://www.w3.org/2000/svg">
<g filter="url(#filter0_d_9_125)">
<path fill-rule="evenodd" clip-rule="evenodd" d="M120.613 104.75C120.613 129.738 100.426 149.994 75.5233 149.994C50.6209 149.994 30.4336 129.738 30.4336 104.75C30.4336 80.4483 73.0843 13.7046 75.4234 10.0624C75.4769 9.97936 75.57 9.97936 75.6233 10.0624C77.9624 13.7046 120.613 80.4483 120.613 104.75ZM68.007 135.489C45.1263 130.447 49.0417 104.918 49.0417 104.918C49.0417 104.918 55.2896 120.329 70.4517 125.321C85.6136 130.312 103.937 122.991 103.937 122.991C103.937 122.991 90.8877 140.531 68.007 135.489Z" fill="#9DB7F5"/>
</g>
<defs>
<filter id="filter0_d_9_125" x="-24" y="0.00012207" width="199" height="200" filterUnits="userSpaceOnUse" color-interpolation-filters="sRGB">
<feFlood flood-opacity="0" result="BackgroundImageFix"/>
<feColorMatrix in="SourceAlpha" type="matrix" values="0 0 0 0 0 0 0 0 0 0 0 0 0 0 0 0 0 0 127 0" result="hardAlpha"/>
<feOffset dy="20"/>
<feGaussianBlur stdDeviation="15"/>
<feComposite in2="hardAlpha" operator="out"/>
<feColorMatrix type="matrix" values="0 0 0 0 0 0 0 0 0 0 0 0 0 0 0 0 0 0 0.25 0"/>
<feBlend mode="normal" in2="BackgroundImageFix" result="effect1_dropShadow_9_125"/>
<feBlend mode="normal" in="SourceGraphic" in2="effect1_dropShadow_9_125" result="shape"/>
</filter>
</defs>
</svg>
